<mxfile host="app.diagrams.net" modified="2023-05-20T13:30:27.157Z" agent="Mozilla/5.0 (Windows NT 10.0; Win64; x64) AppleWebKit/537.36 (KHTML, like Gecko) Chrome/113.0.0.0 Safari/537.36" etag="ubzcaXLVjaUAWhKOswH9" version="21.3.2" type="device">
  <diagram id="C5RBs43oDa-KdzZeNtuy" name="Page-1">
    <mxGraphModel dx="1050" dy="541" grid="1" gridSize="10" guides="1" tooltips="1" connect="1" arrows="1" fold="1" page="1" pageScale="1" pageWidth="827" pageHeight="1169" math="0" shadow="0">
      <root>
        <mxCell id="WIyWlLk6GJQsqaUBKTNV-0" />
        <mxCell id="WIyWlLk6GJQsqaUBKTNV-1" parent="WIyWlLk6GJQsqaUBKTNV-0" />
        <mxCell id="N4JaAFyVMWFVmhXI3t9y-0" value="START" style="ellipse;whiteSpace=wrap;html=1;" vertex="1" parent="WIyWlLk6GJQsqaUBKTNV-1">
          <mxGeometry x="340" y="110" width="120" height="80" as="geometry" />
        </mxCell>
        <mxCell id="N4JaAFyVMWFVmhXI3t9y-1" value="" style="endArrow=classic;html=1;rounded=0;" edge="1" parent="WIyWlLk6GJQsqaUBKTNV-1">
          <mxGeometry width="50" height="50" relative="1" as="geometry">
            <mxPoint x="399.5" y="190" as="sourcePoint" />
            <mxPoint x="399.5" y="240" as="targetPoint" />
          </mxGeometry>
        </mxCell>
        <mxCell id="N4JaAFyVMWFVmhXI3t9y-16" style="edgeStyle=orthogonalEdgeStyle;rounded=0;orthogonalLoop=1;jettySize=auto;html=1;exitX=0.5;exitY=1;exitDx=0;exitDy=0;entryX=0.5;entryY=0;entryDx=0;entryDy=0;" edge="1" parent="WIyWlLk6GJQsqaUBKTNV-1" source="N4JaAFyVMWFVmhXI3t9y-3" target="N4JaAFyVMWFVmhXI3t9y-7">
          <mxGeometry relative="1" as="geometry" />
        </mxCell>
        <mxCell id="N4JaAFyVMWFVmhXI3t9y-3" value="input n" style="shape=parallelogram;perimeter=parallelogramPerimeter;whiteSpace=wrap;html=1;fixedSize=1;" vertex="1" parent="WIyWlLk6GJQsqaUBKTNV-1">
          <mxGeometry x="315" y="240" width="170" height="60" as="geometry" />
        </mxCell>
        <mxCell id="N4JaAFyVMWFVmhXI3t9y-12" style="edgeStyle=orthogonalEdgeStyle;rounded=0;orthogonalLoop=1;jettySize=auto;html=1;exitX=0;exitY=0.5;exitDx=0;exitDy=0;entryX=0.5;entryY=0;entryDx=0;entryDy=0;" edge="1" parent="WIyWlLk6GJQsqaUBKTNV-1" source="N4JaAFyVMWFVmhXI3t9y-7" target="N4JaAFyVMWFVmhXI3t9y-10">
          <mxGeometry relative="1" as="geometry" />
        </mxCell>
        <mxCell id="N4JaAFyVMWFVmhXI3t9y-13" style="edgeStyle=orthogonalEdgeStyle;rounded=0;orthogonalLoop=1;jettySize=auto;html=1;exitX=1;exitY=0.5;exitDx=0;exitDy=0;" edge="1" parent="WIyWlLk6GJQsqaUBKTNV-1" source="N4JaAFyVMWFVmhXI3t9y-7" target="N4JaAFyVMWFVmhXI3t9y-11">
          <mxGeometry relative="1" as="geometry" />
        </mxCell>
        <mxCell id="N4JaAFyVMWFVmhXI3t9y-7" value="n % 3 = 0" style="rhombus;whiteSpace=wrap;html=1;" vertex="1" parent="WIyWlLk6GJQsqaUBKTNV-1">
          <mxGeometry x="322.5" y="340" width="155" height="90" as="geometry" />
        </mxCell>
        <mxCell id="N4JaAFyVMWFVmhXI3t9y-17" style="edgeStyle=orthogonalEdgeStyle;rounded=0;orthogonalLoop=1;jettySize=auto;html=1;exitX=0.5;exitY=1;exitDx=0;exitDy=0;entryX=0;entryY=0.5;entryDx=0;entryDy=0;" edge="1" parent="WIyWlLk6GJQsqaUBKTNV-1" source="N4JaAFyVMWFVmhXI3t9y-10" target="N4JaAFyVMWFVmhXI3t9y-14">
          <mxGeometry relative="1" as="geometry" />
        </mxCell>
        <mxCell id="N4JaAFyVMWFVmhXI3t9y-10" value="output &#39;n chia hêt cho 3&#39;" style="rounded=0;whiteSpace=wrap;html=1;" vertex="1" parent="WIyWlLk6GJQsqaUBKTNV-1">
          <mxGeometry x="120" y="440" width="140" height="80" as="geometry" />
        </mxCell>
        <mxCell id="N4JaAFyVMWFVmhXI3t9y-18" style="edgeStyle=orthogonalEdgeStyle;rounded=0;orthogonalLoop=1;jettySize=auto;html=1;exitX=0.5;exitY=1;exitDx=0;exitDy=0;entryX=1;entryY=0.5;entryDx=0;entryDy=0;" edge="1" parent="WIyWlLk6GJQsqaUBKTNV-1" source="N4JaAFyVMWFVmhXI3t9y-11" target="N4JaAFyVMWFVmhXI3t9y-14">
          <mxGeometry relative="1" as="geometry" />
        </mxCell>
        <mxCell id="N4JaAFyVMWFVmhXI3t9y-11" value="output &#39;n không chia hết cho 3&#39;" style="rounded=0;whiteSpace=wrap;html=1;" vertex="1" parent="WIyWlLk6GJQsqaUBKTNV-1">
          <mxGeometry x="530" y="440" width="140" height="80" as="geometry" />
        </mxCell>
        <mxCell id="N4JaAFyVMWFVmhXI3t9y-14" value="END" style="ellipse;whiteSpace=wrap;html=1;" vertex="1" parent="WIyWlLk6GJQsqaUBKTNV-1">
          <mxGeometry x="340" y="560" width="120" height="80" as="geometry" />
        </mxCell>
        <mxCell id="N4JaAFyVMWFVmhXI3t9y-20" value="Flowchart để check 1 số n có chia hết cho 3 hay không" style="text;html=1;strokeColor=none;fillColor=none;align=center;verticalAlign=middle;whiteSpace=wrap;rounded=0;" vertex="1" parent="WIyWlLk6GJQsqaUBKTNV-1">
          <mxGeometry x="245" y="60" width="310" height="30" as="geometry" />
        </mxCell>
      </root>
    </mxGraphModel>
  </diagram>
</mxfile>
